<svg xmlns="http://www.w3.org/2000/svg" version="1.0" viewBox="0 0 341 389"><g fill="#00BFCC" stroke-width="0"><path d="M196.6 2.1c-.2.8-2.1 9.9-4.1 20.4-2.1 10.4-5.7 27.4-8 37.7l-4.2 18.7 2.9 1c12.8 4.5 17.3 20 8.7 30.4-3.8 4.7-7.9 6.8-14.3 7.6-4.8.6-5.1.8-5.8 4.1-.4 1.9-4.4 20.4-8.9 41-4.4 20.6-8.9 41.1-10 45.4-1 4.4-1.7 8.1-1.6 8.2.6.5 38.8 2.7 39.2 2.2.5-.5 18.8-58.6 27.7-88.1 2.3-7.5 4.5-13.7 5-13.7s5.8 2.5 11.8 5.5c6.1 3 11 5.4 11 5.2 0-2.4-46.6-124.7-48-126.1-.6-.6-1.1-.4-1.4.5"/><path d="M206.2 199.8c-4 12-7.2 22.1-7.2 22.4 0 .4 2.2 3.3 4.8 6.5s7.3 9.1 10.4 13c4.7 6.1 5.8 7 6.8 5.8.7-.8.9-1.5.5-1.5s-.3-.6.3-1.3c.5-.6 3.1-8.7 5.6-17.9l4.6-16.6-8.1-14.4c-4.5-7.8-8.7-15.1-9.3-16-1-1.4-2.5 2.2-8.4 20m-57.6 27.4c-.3.7-.9 2.9-1.4 4.9l-1 3.6 12.7 1.2c17.6 1.6 16.8 1.7 18.6-2.5 2.9-7 3-6.9-16.2-7.9-9.8-.5-12.4-.4-12.7.7M7.2 331.7c-3.5 14.4-6.2 28-6.2 30.8 0 5.3 3.4 13.9 6.3 16.4 2 1.6 1.5 1.9 29.1-22.8 16.6-14.7 17-15.2 17.3-19.3.1-2.4 1.7-10.3 3.6-17.6l3.3-13.2H13.4zm138.3-8.6c-6.6 5-13.8 10.8-16 13-2.3 2.1-4.3 3.9-4.7 3.9-.3 0-2.4-3-4.6-6.8-2.2-3.7-5.3-8.4-7-10.4l-2.9-3.8-2.6 10.7c-3.7 15.2-2.9 14.7-24 15.3l-17.3.5L47 363.1c-10.7 9.7-21.1 19-23 20.7-2.9 2.7-3.3 3.3-2 4.2 1 .6 18.1.9 48.1.7l46.5-.2 7.9-3.9c9-4.4 17-11.7 20.5-18.7 2.4-4.5 4.6-12 10.1-33.4 4.8-18.5 4.8-18.5 3.5-18.5-.6.1-6.5 4.1-13.1 9.1"/></g><path fill="#0080CC" d="M184 15.6c-29.1 32.3-85.8 97.9-85 98.2.5.2 5.7-.8 11.5-2.2 14.6-3.6 13.8-3.9 13.3 4.3l-.3 6.8 16.6-11.1 16.7-11.1 1.1-4.9c2.1-8.9 8.8-15.2 17.8-16.4l4.7-.7 2.8-12c5.1-22.8 13-61.5 12.6-62.6-.2-.6-5.5 4.6-11.8 11.7m-43 105.5c-10.2 6.7-18.7 12.3-18.9 12.5-.4.3-9 80.6-8.7 81.1.2.2 37.1 2 37.4 1.8.8-.6 19.7-86.8 20.8-94.5.6-4.5.6-4.5-2.9-5.8-2-.7-4.7-2.6-6.1-4.2-1.4-1.7-2.6-3-2.8-3s-8.6 5.5-18.8 12.1m-43 59.7c-5.3 4.8-11.9 10.8-14.8 13.4l-5.3 4.7-3.4 20.2c-1.9 11.1-3.4 20.4-3.2 20.5.2.3 30.9-20.6 32.3-22 .1 0 1.2-9.3 2.4-20.6s2.4-21.5 2.7-22.8c.3-1.2.1-2.2-.3-2.2-.5.1-5.2 4-10.4 8.8m21.5 44.2c-.2.4-.7 2.5-1.1 4.7l-.6 4 13.8 1.1c7.6.7 14.1.9 14.5.4.3-.4 1.1-2.6 1.6-4.9l1.1-4.2-6.2-.5c-11.2-1-22.7-1.3-23.1-.6"/><path fill="#00BF66" d="m231.3 188-3.3 1.9 5.5 9.4c3 5.2 5.5 10 5.5 10.9 0 .8-3.1 13-7 27.2-3.8 14.1-7 25.9-7 26.1 0 2.1-3.5-1.7-14.5-15.5-7-8.8-13-15.9-13.2-15.6-.2.2-3.1 10.9-6.4 23.8-5.4 20.8-6 24.1-5.6 30.9.4 8.8 3.4 15 9.2 19.5 6.4 4.9 10.4 5.4 41 5.4 20.5 0 28.4.3 29.3 1.2.7.7 1.2 2.6 1.2 4.3 0 3.3-4.4 20.5-6 23.5-1.9 3.6-7.3 4-49.1 4h-40.7l-5.5 22-5.5 22h53.2c58.9 0 59.7-.1 71.2-6.5 6.7-3.8 14.2-11.2 17.2-17.1 1.1-2.2 5.5-17.9 9.7-34.9 5.9-23.6 7.7-32.6 7.7-37.7-.1-11.4-5.4-20.3-14.7-24.5-3.5-1.6-8-1.9-34.4-2.3l-30.4-.5-1.8-2.5c-1.8-2.4-1.8-2.7 1-13.8 1.6-6.2 3.5-11.9 4.2-12.8 3.5-4.3 5-4.4 46.8-4.4h40l1.2-4.3c.6-2.3 3.1-11.5 5.5-20.5 4.9-18 5.1-19.7 2.8-20.6-.9-.3-24.6-.6-52.7-.6-49.2 0-51.3.1-54.4 2m-88.2 60.8c-.6 2-2 8.4-3.1 14.2-1.2 5.8-3.9 18.2-6.1 27.7-2.2 9.4-3.9 18.7-3.7 20.5.3 3.1 1 2.3 11.7-13.7 12.6-18.8 16.5-26.1 18.2-34.4 1-4.9.9-15.5-.2-16.5-.2-.2-3.9-.6-8.1-.9l-7.7-.7zm25.9 5.3c0 10.4-2.1 18.4-7.5 28.6-3.7 7-12.8 20.8-21.2 32-1.3 1.7-2 3.4-1.5 3.7 1.2.7 20.8-15 27.2-22 14.7-16 19.1-37.9 9.3-47.1-5.5-5.2-6.3-4.6-6.3 4.8"/><path fill="#00BF66" fill-opacity=".9" d="M338.6 186.7c.5.5 1.2 1.2 1.6 1.8s.8.2.8-.8c0-.9-.7-1.7-1.7-1.7-.9 0-1.2.3-.7.7"/><g fill="#00BF33" stroke-width="0"><path d="M108.1 246.5c-7.4 6.9-9.6 12.7-9.5 25 .1 8.3.5 11.2 2.7 16.9 4.4 11.3 16.5 30.1 18.2 28.4.4-.4-1.2-8.9-3.5-19-6.2-26.8-6.3-37.1-.8-48.2 3.1-6 3.1-7.6.2-7.6-1.6 0-4.3 1.7-7.3 4.5"/><path d="M125.5 246.4c-6.8 10.4-7.2 21.5-1.5 46.7 2.2 9.8 4 19.2 4 20.9 0 1.6.5 3 1.1 3 .5 0 .7-.5.4-1-.3-.6-.2-1 .2-1 .5 0 .7-1.5.5-3.4s1.4-11.2 3.6-20.8c2.3-9.5 5.2-23 6.7-30 1.4-7 2.8-13.4 3.1-14.1.4-1.1-1-1.6-5.7-2.1-9.6-1-10.7-.8-12.4 1.8"/></g></svg>